
<mxfile host="app.diagrams.net">
  <diagram name="Photography Portfolio">
    <mxGraphModel dx="1510" dy="877" grid="1" gridSize="10" guides="1" tooltips="1" connect="1" arrows="1" fold="1" 
                  page="1" pageScale="1" pageWidth="827" pageHeight="1169" math="0" shadow="0">
      <root>
        <mxCell id="0" />
        <mxCell id="1" parent="0" />
        
        <!-- Navigation Bar -->
        <mxCell id="navBar" value="Navigation Bar: Home | Gallery | About Us | Contact Us" style="rounded=0;whiteSpace=wrap;html=1;fillColor=#00fff2;strokeColor=#000000;" vertex="1" parent="1">
          <mxGeometry x="50" y="20" width="700" height="50" as="geometry" />
        </mxCell>
        
        <!-- Hero Section -->
        <mxCell id="heroSection" value="Hero Section: Welcome to My Photography Portfolio" style="rounded=0;whiteSpace=wrap;html=1;fillColor=#f4f4f4;strokeColor=#000000;" vertex="1" parent="1">
          <mxGeometry x="50" y="90" width="700" height="150" as="geometry" />
        </mxCell>
        
        <!-- Gallery Section -->
        <mxCell id="gallerySection" value="Gallery Section: Placeholder Images" style="rounded=0;whiteSpace=wrap;html=1;fillColor=#00fff2;strokeColor=#000000;" vertex="1" parent="1">
          <mxGeometry x="50" y="260" width="700" height="150" as="geometry" />
        </mxCell>

        <!-- About Us Section -->
        <mxCell id="aboutSection" value="About Us Section: Description about the portfolio" style="rounded=0;whiteSpace=wrap;html=1;fillColor=#f4f4f4;strokeColor=#000000;" vertex="1" parent="1">
          <mxGeometry x="50" y="430" width="700" height="150" as="geometry" />
        </mxCell>
        
        <!-- Contact Us Section -->
        <mxCell id="contactSection" value="Contact Us Section: Name | Email | Message | Submit Button" style="rounded=0;whiteSpace=wrap;html=1;fillColor=#00fff2;strokeColor=#000000;" vertex="1" parent="1">
          <mxGeometry x="50" y="600" width="700" height="150" as="geometry" />
        </mxCell>

      </root>
    </mxGraphModel>
  </diagram>
</mxfile>
